<svg data-slug-id="auto-signal" xmlns="http://www.w3.org/2000/svg" viewBox="0 0 48 49">
	<path d="M38.6863 23.6323C36.5221 23.6323 34.7705 25.3873 34.7705 27.5557C34.7705 29.7241 36.5221 31.479 38.6863 31.479C40.8505 31.479 42.6021 29.7241 42.6021 27.5557C42.6021 25.3957 40.8421 23.6323 38.6863 23.6323Z" fill="#0078D7"/>
	<path d="M38.6861 30.612C40.3703 30.612 41.7345 29.2452 41.7345 27.5577C41.7345 25.8703 40.3703 24.5034 38.6861 24.5034C37.0019 24.5034 35.6377 25.8703 35.6377 27.5577C35.6377 29.2452 37.0019 30.612 38.6861 30.612Z" fill="#50E6FF"/>
	<path d="M38.6862 31.4053C36.5725 31.4053 34.8462 29.6841 34.8462 27.5579C34.8462 25.4401 36.5641 23.7104 38.6862 23.7104C40.8083 23.7104 42.5262 25.4317 42.5262 27.5579C42.5178 29.6841 40.7999 31.4053 38.6862 31.4053ZM38.6862 25.3051C37.4399 25.3051 36.4294 26.3176 36.4294 27.5663C36.4294 28.815 37.4399 29.8275 38.6862 29.8275C39.9325 29.8275 40.943 28.815 40.943 27.5663C40.9346 26.3176 39.9241 25.3051 38.6862 25.3051Z" fill="#0078D7"/>
	<path d="M8.89284 31.4908C11.0555 31.4908 12.8086 29.7342 12.8086 27.5674C12.8086 25.4006 11.0555 23.644 8.89284 23.644C6.73021 23.644 4.97705 25.4006 4.97705 27.5674C4.97705 29.7342 6.73021 31.4908 8.89284 31.4908Z" fill="#0078D7"/>
	<path d="M8.89266 30.612C10.5769 30.612 11.9411 29.2452 11.9411 27.5577C11.9411 25.8703 10.5769 24.5034 8.89266 24.5034C7.20845 24.5034 5.84424 25.8703 5.84424 27.5577C5.84424 29.2452 7.20845 30.612 8.89266 30.612Z" fill="#50E6FF"/>
	<path d="M8.89273 31.4053C6.77905 31.4053 5.05273 29.6841 5.05273 27.5579C5.05273 25.4401 6.77063 23.7104 8.89273 23.7104C11.0148 23.7104 12.7327 25.4317 12.7327 27.5579C12.7327 29.6841 11.0064 31.4053 8.89273 31.4053ZM8.89273 25.3051C7.64642 25.3051 6.63589 26.3176 6.63589 27.5663C6.63589 28.815 7.64642 29.8275 8.89273 29.8275C10.1391 29.8275 11.1496 28.815 11.1496 27.5663C11.1496 26.3176 10.1306 25.3051 8.89273 25.3051Z" fill="#0078D7"/>
	<path d="M46.8722 24.2741C46.3585 22.7638 45.2469 22.3672 43.428 21.9369C41.609 21.4982 36.1101 20.6713 35.3606 20.511C34.889 20.4351 34.1311 20.1566 32.6743 19.3213C31.209 18.486 28.2027 17.0601 25.2722 16.5876C22.3417 16.1152 19.8153 16.1489 16.1353 16.3936C12.4553 16.6298 8.81745 18.7307 7.51219 19.3298C6.20692 19.9288 3.55429 20.0807 2.52692 20.047C1.49956 20.0132 1.26377 20.2832 1.22166 20.7979C1.17956 21.3126 1.41535 22.7806 1.41535 22.7806C1.33956 23.0591 0.547977 24.1644 0.387977 24.4091C0.227977 24.6453 0.312187 26.434 0.270082 26.9824C0.227977 27.5393 1.06166 28.0962 2.13113 28.4505C2.76271 28.6446 3.5964 28.8049 4.11008 28.923C4.27008 28.9652 4.38798 28.8049 4.34587 28.6446C4.22798 28.0877 4.18587 27.5309 4.27008 26.8981C4.59008 24.7212 6.44271 23.0169 8.66587 22.9325C11.3185 22.8144 13.4575 24.9575 13.4575 27.5731C13.4575 28.1637 13.3396 28.7205 13.1375 29.2352C13.0617 29.4293 13.2132 29.6318 13.4153 29.6318C16.1859 29.6318 31.3017 29.6318 34.1059 29.6318C34.2996 29.6318 34.4596 29.4377 34.3838 29.2352C34.1059 28.5602 33.988 27.8093 34.1059 27.0162C34.3417 24.8731 36.0848 23.1688 38.2238 22.9747C40.9943 22.6963 43.2848 24.8815 43.2848 27.5731C43.2848 28.0877 43.209 28.6024 43.0069 29.0833C42.9311 29.3196 43.1248 29.5221 43.3606 29.5221C44.228 29.4461 45.4996 29.2858 46.1732 29.2015C47.1585 29.0833 47.3185 28.729 47.3185 28.4083C47.3101 28.0793 47.3859 25.7759 46.8722 24.2741Z" fill="#0078D7"/>
	<path d="M21.9148 9.58372C23.5916 9.58372 25.1703 10.2364 26.3561 11.4223L27.8295 9.94863C26.1947 8.31355 24.0547 7.49951 21.9148 7.49951C19.7748 7.49951 17.6348 8.31355 16 9.94863L17.4734 11.4223C18.6592 10.2364 20.2379 9.58372 21.9148 9.58372Z" fill="#0078D4"/>
	<path d="M21.9151 13.8514C22.4553 13.8514 22.9605 14.0619 23.3394 14.4409L24.8128 12.9672C24.0129 12.1672 22.9675 11.7672 21.9151 11.7672C20.8696 11.7672 19.8172 12.1672 19.0173 12.9672L20.4908 14.4409C20.8696 14.0619 21.3748 13.8514 21.9151 13.8514Z" fill="#0078D4"/>
	<path d="M12.2529 21.4138L12.3287 20.2663C12.4466 20.1482 12.5224 20.0723 12.6487 19.9879C14.0719 18.8404 16.0508 18.1654 18.4677 18.0051C19.1414 17.9629 19.7729 17.9292 20.4466 17.9292L20.8424 21.4138H12.2529V21.4138Z" fill="#50E6FF"/>
	<path d="M22.5429 21.4138L22.0713 17.9292C23.8481 18.0051 25.5492 18.2498 26.5008 18.562C28.4039 19.237 29.2713 19.7095 29.945 20.1904H29.625C29.3892 20.1904 29.1871 20.3845 29.1871 20.6291L29.1113 21.3801H22.5429V21.4138Z" fill="#50E6FF"/>
</svg>
