<svg data-slug-id="documents06" viewBox="0 0 49 49" xmlns="http://www.w3.org/2000/svg">
<rect x="3.3623" y="18.0898" width="30.9051" height="22.4127" fill="white"/>
<path d="M13.1544 32.0515L13.1628 36.3303L18.4924 31.1437L13.146 26.2344L13.1544 30.2022H2.17578V32.0515H13.1544Z" fill="#0078D4"/>
<path d="M41.6016 13.2476C41.6016 8.77546 37.9784 5.15234 33.5063 5.15234C29.6478 5.15234 26.4282 7.85077 25.6128 11.4655C24.8142 10.6417 23.6877 10.1205 22.452 10.1205C20.0226 10.1205 18.0471 12.096 18.0471 14.5254C18.0471 14.559 18.0555 14.601 18.0555 14.6347C15.3571 15.1643 13.3228 17.5432 13.3228 20.393C13.3228 23.6378 15.9539 26.2606 19.1904 26.2606H43.2744C46.2166 26.2606 48.5956 23.8816 48.5956 20.9394C48.5956 17.9972 46.2166 15.6182 43.2744 15.6182C42.4926 15.6182 41.7529 15.7947 41.0804 16.0974C41.4166 15.2147 41.6016 14.2564 41.6016 13.2476Z" fill="#50E6FF"/>
<path d="M33.3971 17.1562L30.3372 19.7622H32.7835V39.3405H7.38802L4.32812 41.9549H33.3803C34.3891 41.9549 35.4146 41.0554 35.4146 40.0382V19.0813C35.4062 18.0641 34.3975 17.1647 33.3971 17.1562Z" fill="#0078D4"/>
<path d="M4.33666 39.3405V19.7622H30.3374L33.3973 17.1562H33.3888C33.3804 17.1562 33.3804 17.1562 33.372 17.1562H3.61372C3.17659 17.1562 2.78149 17.3328 2.47046 17.6018C2.05855 17.9633 1.78955 18.5013 1.78955 19.0813V40.0382C1.78955 41.0554 2.60496 41.9549 3.61372 41.9549H4.31985L7.37974 39.3405H4.33666Z" fill="#0078D4"/>
<path d="M0.595703 44.6221H35.9274V41.8984H0.595703V44.6221Z" fill="#50E6FF"/>
<path d="M18.9466 18.569C18.9466 18.838 18.7364 19.0482 18.4674 19.0482C18.2068 19.0482 17.9883 18.8296 17.9883 18.569C17.9883 18.3 18.1984 18.0898 18.4674 18.0898C18.728 18.0898 18.9466 18.3084 18.9466 18.569Z" fill="#0078D4"/>
</svg>
