<svg data-slug-id="dollar-cart" xmlns="http://www.w3.org/2000/svg" viewBox="0 0 48 48">
<path d="M39.549 35.296H11.509L9.31836 15.1254H46.6517L39.549 35.296Z" fill="#0078D7"/>
<path d="M11.4243 8.0238H1.43164V11.3266H8.9219L10.0593 21.909L13.5222 21.4203L11.4243 8.0238Z" fill="#0078D7"/>
<path d="M15.216 45.5065C17.3007 45.5065 18.9906 43.8166 18.9906 41.7319C18.9906 39.6472 17.3007 37.9573 15.216 37.9573C13.1314 37.9573 11.4414 39.6472 11.4414 41.7319C11.4414 43.8166 13.1314 45.5065 15.216 45.5065Z" fill="#0078D7"/>
<path d="M35.7238 45.5065C37.8085 45.5065 39.4985 43.8166 39.4985 41.7319C39.4985 39.6472 37.8085 37.9573 35.7238 37.9573C33.6392 37.9573 31.9492 39.6472 31.9492 41.7319C31.9492 43.8166 33.6392 45.5065 35.7238 45.5065Z" fill="#0078D7"/>
<path d="M30.559 25.0325C30.0788 24.527 29.2868 24.0889 28.1915 23.6845V20.8788C29.0846 20.9799 29.8682 21.2495 30.559 21.6539V19.6234C30.0451 19.3201 29.2194 19.1516 28.1915 19.1179V17.7698H27.0625V19.16C26.1694 19.2274 25.4195 19.5307 24.8718 20.1036C24.6022 20.3733 24.3916 20.6766 24.2231 21.022C24.0883 21.359 23.9787 21.7298 24.0209 22.1005C24.0209 22.8756 24.2652 23.516 24.7455 23.9962C25.192 24.468 25.9756 24.9399 27.113 25.3443V28.0489C26.6665 28.0152 26.1188 27.8804 25.5375 27.6781C24.9224 27.4422 24.5095 27.2737 24.1978 27.0378V29.1021C25.0909 29.5739 26.043 29.8098 27.0372 29.8098V31.3685H28.1662V29.7761C29.1941 29.675 29.944 29.338 30.4916 28.8577C31.0056 28.3522 31.2836 27.7119 31.2836 26.8609C31.2415 26.0773 31.0393 25.5044 30.559 25.0325ZM27.0625 23.2379C26.38 22.9009 26.0346 22.4628 26.0346 21.9151C26.0346 21.3422 26.38 20.9715 27.0625 20.8367V23.2379ZM28.1578 28.0067V25.7403C28.8824 26.0436 29.2531 26.4143 29.2531 26.9283C29.2194 27.5349 28.8739 27.8719 28.1578 28.0067Z" fill="#50E6FF"/>
</svg>
