<svg data-slug-id="iot-hub" xmlns="http://www.w3.org/2000/svg"  viewBox="0 0 18 18">
  <defs>
    <linearGradient id="iot-hub:faaeb69b-3035-4577-9cb1-ddd3fba791e3" x1="9.13" y1="18.81" x2="8.85" y2="-8.1" gradientUnits="userSpaceOnUse">
      <stop offset="0" stop-color="#198ab3"/>
      <stop offset="0" stop-color="#198ab3"/>
      <stop offset="0.09" stop-color="#22a5cb"/>
      <stop offset="0.19" stop-color="#29bade"/>
      <stop offset="0.29" stop-color="#2ec9eb"/>
      <stop offset="0.42" stop-color="#31d1f3"/>
      <stop offset="0.62" stop-color="#32d4f5"/>
    </linearGradient>
  </defs>
   
  <circle cx="11.4" cy="8.44" r="1.97" fill="#fff"/>
  <circle cx="14.7" cy="14.3" r="1.55" fill="#fff"/>
  <circle cx="8.57" cy="13.24" r="1.33" fill="#fff"/>
  <circle cx="7.61" cy="3.11" r="1.65" fill="#fff"/>
  <circle cx="3.19" cy="9.19" r="1.33" fill="#fff"/>
  <polygon points="15.06 13.99 11.73 8.16 11.4 8.35 11.67 8.15 7.9 2.79 7.21 3.29 10.55 8.04 3.15 8.65 3.22 9.51 10.55 8.9 8.12 12.94 8.85 13.38 11.35 9.22 14.32 14.41 15.06 13.99" fill="#949494"/>
  
    <path d="M17.53,1.23h0A.73.73,0,0,0,16.8.5H13a.36.36,0,0,0-.36.36V2.27a.36.36,0,0,0,.36.36h2.35v2.3a.38.38,0,0,0,.37.37h1.4a.38.38,0,0,0,.37-.37V1.23Z" fill="#949494"/>
    <path d="M5,15.37H2.61v-2.3a.38.38,0,0,0-.37-.37H.84a.38.38,0,0,0-.37.37v3.7h0a.73.73,0,0,0,.73.72H5a.36.36,0,0,0,.36-.36V15.73A.36.36,0,0,0,5,15.37Z" fill="#949494"/>
  
  <path d="M11.4,6.49a2,2,0,1,1-2,1.95A2,2,0,0,1,11.4,6.49ZM6,3.11A1.66,1.66,0,1,0,7.62,1.46,1.65,1.65,0,0,0,6,3.11ZM1.86,9.18A1.33,1.33,0,1,0,3.19,7.85,1.33,1.33,0,0,0,1.86,9.18Zm5.38,4.05A1.34,1.34,0,1,0,8.58,11.9,1.33,1.33,0,0,0,7.24,13.23Zm5.92,1.07a1.55,1.55,0,1,0,1.55-1.54A1.53,1.53,0,0,0,13.16,14.3Z" fill="url(#iot-hub:faaeb69b-3035-4577-9cb1-ddd3fba791e3)"/>
</svg>
