<?xml version="1.0" encoding="UTF-8" standalone="no"?>
<svg
   xmlns:dc="http://purl.org/dc/elements/1.1/"
   xmlns:cc="http://creativecommons.org/ns#"
   xmlns:rdf="http://www.w3.org/1999/02/22-rdf-syntax-ns#"
   xmlns:svg="http://www.w3.org/2000/svg"
   xmlns="http://www.w3.org/2000/svg"
   xmlns:sodipodi="http://sodipodi.sourceforge.net/DTD/sodipodi-0.dtd"
   xmlns:inkscape="http://www.inkscape.org/namespaces/inkscape"
   inkscape:version="1.0 (4035a4fb49, 2020-05-01)"
   sodipodi:docname="sl1.svg"
   id="svg38"
   version="1.1"
   overflow="hidden"
   height="507"
   width="504">
  <metadata
     id="metadata42">
    <rdf:RDF>
      <cc:Work
         rdf:about="">
        <dc:format>image/svg+xml</dc:format>
        <dc:type
           rdf:resource="http://purl.org/dc/dcmitype/StillImage" />
      </cc:Work>
    </rdf:RDF>
  </metadata>
  <sodipodi:namedview
     inkscape:current-layer="svg38"
     inkscape:window-maximized="0"
     inkscape:window-y="0"
     inkscape:window-x="3149"
     inkscape:cy="323.12748"
     inkscape:cx="-55.146831"
     inkscape:zoom="0.99408284"
     showgrid="false"
     id="namedview40"
     inkscape:window-height="1307"
     inkscape:window-width="2120"
     inkscape:pageshadow="2"
     inkscape:pageopacity="0"
     guidetolerance="10"
     gridtolerance="10"
     objecttolerance="10"
     borderopacity="1"
     bordercolor="#666666"
     pagecolor="#ffffff" />
  <defs
     id="defs30">
    <clipPath
       id="clip0">
      <path
         id="path27"
         clip-rule="evenodd"
         fill-rule="evenodd"
         d="M439 97 943 97 943 604 439 604Z" />
    </clipPath>
  </defs>
  <g
     id="g54">
    <path
       id="path32"
       fill-rule="evenodd"
       fill="#0070c0"
       d="M 474.7382,308.116 H 392.977 c -5.303,-31.875 -21.21,-62.421 -45.07,-87.654 C 316.093,188.588 275,171.323 229.93,171.323 c -43.744,0 -86.163,17.265 -117.977,49.139 -10.604,10.625 -10.604,27.89 0,39.842 10.605,10.625 27.838,10.625 39.768,0 21.209,-21.249 49.046,-31.874 78.209,-31.874 29.163,0 57,11.953 78.21,31.874 43.744,43.827 43.744,114.216 0,156.714 -21.21,21.25 -49.047,31.874 -78.21,31.874 -29.163,0 -57,-11.952 -78.209,-31.874 -10.605,-10.624 -27.837,-10.624 -39.768,0 -10.604,10.625 -10.604,27.89 0,39.843 31.814,31.874 72.908,49.139 117.977,49.139 43.744,0 86.163,-17.265 117.977,-49.139 26.512,-26.562 41.093,-58.436 46.395,-92.966 h 80.861 c 15.907,0 27.837,-11.953 27.837,-27.89 0.14195,-16.98945 -13.73471,-27.70636 -28.2618,-27.889 z"
       sodipodi:nodetypes="cccscccsccscccsscscc" />
    <path
       id="path34"
       fill-rule="evenodd"
       fill="#0070c0"
       d="m 1,335.663 c 0,15.921 11.933,27.862 27.844,27.862 H 172.04 C 182.647,386.079 205.188,402 231.705,402 268.83,402 298,372.812 298,335.663 c -1.326,-37.148 -31.821,-66.336 -67.621,-66.336 -26.517,0 -49.058,15.921 -59.665,38.475 L 29.207238,308.30498 C 11.507663,308.3493 0.92323412,322.96599 1,335.663 Z"
       sodipodi:nodetypes="cscscsccc" />
  </g>
</svg>
