<svg data-slug-id="truck-signal" xmlns="http://www.w3.org/2000/svg" viewBox="0 0 48 48">
	<path d="M23.8527 5.65047C25.865 5.65047 27.7594 6.43362 29.1823 7.85678L30.9504 6.08836C28.9886 4.12626 26.4207 3.14941 23.8527 3.14941C21.2847 3.14941 18.7168 4.12626 16.755 6.08836L18.5231 7.85678C19.946 6.43362 21.8404 5.65047 23.8527 5.65047Z" fill="#0078D4"/>
	<path d="M23.8526 10.7706C24.501 10.7706 25.1072 11.0232 25.5618 11.478L27.3299 9.70953C26.3701 8.74953 25.1156 8.26953 23.8526 8.26953C22.5981 8.26953 21.3352 8.74953 20.3754 9.70953L22.1435 11.478C22.5981 11.0232 23.2043 10.7706 23.8526 10.7706Z" fill="#0078D4"/>
	<path d="M38.2502 20.1685H35.2528V39.7895H37.0714C37.1472 37.6 38.8985 35.8821 41.1213 35.8821C43.3356 35.8821 45.0953 37.5916 45.1711 39.7895H47.9411V29.9116H47.9916C47.9916 24.5474 43.6134 20.1685 38.2502 20.1685ZM39.2437 28.2611V23.4106C42.3 23.4106 44.7501 25.5748 44.7501 28.2611H39.2437Z" fill="#50E6FF"/>
	<path d="M35.2612 15.2759H0V39.7475H2.81214C2.94685 37.6169 4.68128 35.9664 6.85353 35.9664C9.02579 35.9664 10.7686 37.6169 10.8949 39.7643L35.2612 39.7896V15.2759V15.2759Z" fill="#0078D4"/>
	<path d="M41.1212 36.8843C39.4289 36.8843 38.0144 38.2485 38.0144 39.9916C38.0144 41.7348 39.3784 43.099 41.1212 43.099C42.8641 43.099 44.2281 41.7348 44.2281 39.9916C44.2281 38.2485 42.8136 36.8843 41.1212 36.8843Z" fill="#0078D4"/>
	<path d="M6.85353 36.96C5.16119 36.96 3.7467 38.3242 3.7467 40.0673C3.7467 41.8105 5.11068 43.1747 6.85353 43.1747C8.59638 43.1747 9.96035 41.8105 9.96035 40.0673C9.96035 38.3326 8.54586 36.96 6.85353 36.96Z" fill="#0078D4"/>
</svg>
