<svg data-slug-id="users06" viewBox="0 0 49 49" xmlns="http://www.w3.org/2000/svg">
<path d="M30.2725 33.7291C30.2725 28.8246 34.2416 24.8555 39.146 24.8555C44.0505 24.8555 48.0196 28.8246 48.0196 33.7291H30.2725Z" fill="#50E6FF"/>
<path d="M44.1174 17.4791C44.1174 20.2263 41.8927 22.4426 39.1539 22.4426C36.4151 22.4426 34.1904 20.2179 34.1904 17.4791C34.1904 14.7403 36.4151 12.5156 39.1539 12.5156C41.8927 12.5156 44.1174 14.7403 44.1174 17.4791Z" fill="#50E6FF"/>
<path d="M15.1035 23.6158C15.1035 18.7113 19.0726 14.7422 23.9771 14.7422C28.8816 14.7422 32.8507 18.7113 32.8507 23.6158H15.1035Z" fill="#0078D7"/>
<path d="M28.9494 7.36973C28.9494 10.1169 26.7247 12.3332 23.9859 12.3332C21.2472 12.3332 19.0225 10.1085 19.0225 7.36973C19.0225 4.63097 21.2387 2.40625 23.9775 2.40625C26.7163 2.40625 28.9494 4.63097 28.9494 7.36973Z" fill="#0078D7"/>
<path d="M15.1035 46.5298C15.1035 41.6254 19.0726 37.6562 23.9771 37.6562C28.8816 37.6562 32.8507 41.6254 32.8507 46.5298H15.1035Z" fill="#50E6FF"/>
<path d="M28.9494 30.2877C28.9494 33.0349 26.7247 35.2512 23.9859 35.2512C21.2472 35.2512 19.0225 33.0265 19.0225 30.2877C19.0225 27.5489 21.2472 25.3242 23.9859 25.3242C26.7247 25.3242 28.9494 27.5405 28.9494 30.2877Z" fill="#50E6FF"/>
<path d="M0.0195312 33.7291C0.0195312 28.8246 3.98862 24.8555 8.8931 24.8555C13.7976 24.8555 17.7667 28.8246 17.7667 33.7291H0.0195312Z" fill="#0078D7"/>
<path d="M13.8654 17.4791C13.8654 20.2263 11.6407 22.4426 8.90195 22.4426C6.16319 22.4426 3.93848 20.2179 3.93848 17.4791C3.93848 14.7403 6.15476 12.5156 8.89352 12.5156C11.6323 12.5156 13.8654 14.7403 13.8654 17.4791Z" fill="#0078D7"/>
</svg>
